<?xml version="1.0" encoding="UTF-8"?>
<svg id="Calque_1" data-name="Calque 1" xmlns="http://www.w3.org/2000/svg" viewBox="0 0 584 86">
  <g>
    <path d="M581.27,75.32c-2.86-.32-6.43-1.68-6.43-7.42v-30.96l-15.3,2.75v31.92c0,9.81,4.76,14.58,14.55,14.58,2.19,0,4.62,0,7.19,0h0s2.73,0,2.73,0v-10.86h-2.73Z" style="fill: #25986b;"/>
    <path d="M509.11,60.43c-.33-8.72-.33-21.2,0-29.01.28-6.57,4.37-10.98,10.2-10.98,5.36,0,9.82,4.69,9.82,11.46l15.99-2.84c-.21-6.47-2.2-11.17-5.95-15.16-4.57-4.85-11.62-7.53-19.86-7.53-13.35,0-27.09,7.49-27.72,24.22-.32,7.83-.23,17.61,0,30.83.34,18.26,14.91,24.74,27.28,24.74.15,0,.29,0,.44,0v-14.06c-5.96-.11-9.95-4.67-10.2-11.67Z" style="fill: #202a3a;"/>
    <path d="M546.5,41.96l-27.19,4.81v11.32l10.6-1.92.04.85c0,.1.12,2.44,0,4.39-.43,6.6-4.42,10.7-10.41,10.7-.07,0-.15,0-.22,0v14.06c7.5-.08,13.9-2.17,18.53-6.07,5.37-4.52,8.24-11.31,8.53-20.19.06-1.69.1-4.13.12-6.71h.01s-.01,0-.01,0c.03-4.19.03-8.78.01-11.23Z" style="fill: #25986b;"/>
    <ellipse cx="570.23" cy="11.03" rx="10.7" ry="11.03" style="fill: #25986b;"/>
    <path d="M466.98,67.41V10.75s-18.33,3.26-18.33,3.26v56.79c0,9.53,8.3,16.79,17.43,15.22l19.23-3.31v-14.41l-14.46,2.49c-2.02.35-3.87-1.26-3.87-3.38Z" style="fill: #202a3a;"/>
  </g>
  <g>
    <path d="M29.01,34.58c-2.71,0-4.92-.65-6.61-1.96s-2.86-3.2-3.5-5.68l5.17-2.28c.43,1.77,1.06,3.08,1.9,3.93s1.92,1.27,3.27,1.27c1.04,0,1.85-.28,2.43-.85s.87-1.32.87-2.26-.22-1.68-.67-2.24c-.44-.56-1.21-1-2.3-1.33l-3.88-1.22c-3.75-1.19-5.62-3.79-5.62-7.79,0-2.43.84-4.35,2.51-5.76,1.67-1.41,3.86-2.11,6.57-2.11,5.24,0,8.38,2.28,9.42,6.84l-4.79,2.39c-.73-3.22-2.36-4.83-4.86-4.83-.99,0-1.77.26-2.36.78-.58.52-.87,1.21-.87,2.07,0,1.65,1.04,2.83,3.12,3.53l3.88,1.29c2,.68,3.45,1.65,4.33,2.89.89,1.24,1.33,2.88,1.33,4.9,0,2.51-.83,4.54-2.49,6.08s-3.95,2.32-6.86,2.32Z" style="fill: #25986b;"/>
    <path d="M41.93,6.95h5.89v18.7c0,1.27.33,2.26.99,2.98.66.72,1.57,1.08,2.74,1.08s2.08-.36,2.75-1.08c.67-.72,1.01-1.72,1.01-2.98V6.95h5.85v18.96c0,2.69-.84,4.8-2.53,6.35-1.69,1.54-4.05,2.32-7.09,2.32s-5.37-.77-7.07-2.32-2.55-3.66-2.55-6.35V6.95Z" style="fill: #25986b;"/>
    <path d="M74.08,34.58c-2.71,0-4.92-.65-6.61-1.96s-2.86-3.2-3.5-5.68l5.17-2.28c.43,1.77,1.06,3.08,1.9,3.93s1.92,1.27,3.27,1.27c1.04,0,1.85-.28,2.43-.85s.87-1.32.87-2.26-.22-1.68-.67-2.24c-.44-.56-1.21-1-2.3-1.33l-3.88-1.22c-3.75-1.19-5.62-3.79-5.62-7.79,0-2.43.84-4.35,2.51-5.76,1.67-1.41,3.86-2.11,6.57-2.11,5.24,0,8.38,2.28,9.42,6.84l-4.79,2.39c-.73-3.22-2.36-4.83-4.86-4.83-.99,0-1.77.26-2.36.78-.58.52-.87,1.21-.87,2.07,0,1.65,1.04,2.83,3.12,3.53l3.88,1.29c2,.68,3.45,1.65,4.33,2.89.89,1.24,1.33,2.88,1.33,4.9,0,2.51-.83,4.54-2.49,6.08s-3.95,2.32-6.86,2.32Z" style="fill: #25986b;"/>
    <path d="M103.98,6.95v4.83h-6.5v22.15h-5.89V11.78h-6.5v-4.83h18.89Z" style="fill: #25986b;"/>
    <path d="M118.92,33.93l-1.52-6.27h-7.45l-1.52,6.27h-5.93l7.6-26.98h7.18l7.56,26.98h-5.93ZM110.97,23.44h5.4l-1.9-7.94c-.41-1.95-.66-3.24-.76-3.88h-.08c-.13.99-.38,2.28-.76,3.88l-1.9,7.94Z" style="fill: #25986b;"/>
    <path d="M134.34,33.93h-5.89V6.95h5.89v26.98Z" style="fill: #25986b;"/>
    <path d="M139.85,33.93V6.95h6.42l6.8,14.06c.61,1.29,1.05,2.79,1.33,4.48h.08c-.05-1.19-.08-2.99-.08-5.4V6.95h5.4v26.98h-5.93l-7.22-14.74c-.63-1.32-1.09-2.82-1.37-4.52h-.08c.05,1.88.08,3.61.08,5.21v14.06h-5.43Z" style="fill: #25986b;"/>
    <path d="M179.79,33.93l-1.52-6.27h-7.45l-1.52,6.27h-5.93l7.6-26.98h7.18l7.56,26.98h-5.93ZM171.85,23.44h5.4l-1.9-7.94c-.41-1.95-.66-3.24-.76-3.88h-.08c-.13.99-.38,2.28-.76,3.88l-1.9,7.94Z" style="fill: #25986b;"/>
    <path d="M203.12,19.76c1.54.35,2.73,1.09,3.55,2.2.82,1.12,1.23,2.56,1.23,4.33,0,2.33-.72,4.19-2.15,5.57-1.43,1.38-3.52,2.07-6.25,2.07h-10.18V6.95h9.84c2.71,0,4.76.65,6.16,1.96,1.39,1.31,2.09,3.05,2.09,5.23,0,1.39-.37,2.59-1.12,3.59-.75,1-1.81,1.68-3.17,2.03ZM197.88,11.02h-2.66v7.22h2.7c2.25,0,3.38-1.24,3.38-3.72,0-2.33-1.14-3.5-3.42-3.5ZM198.18,29.87c2.38,0,3.57-1.29,3.57-3.88s-1.18-3.95-3.53-3.95h-3v7.83h2.96Z" style="fill: #25986b;"/>
    <path d="M212.05,33.93V6.95h5.89v22.04h8.85v4.94h-14.74Z" style="fill: #25986b;"/>
    <path d="M236.41,29.49h9.84v4.45h-15.73V6.95h15.47v4.45h-9.58v6.5h9.01v4.41h-9.01v7.18Z" style="fill: #25986b;"/>
    <path d="M265.17,29.49h9.84v4.45h-15.73V6.95h15.47v4.45h-9.58v6.5h9.01v4.41h-9.01v7.18Z" style="fill: #25986b;"/>
    <path d="M288.35,34.58c-3.57,0-6.22-1.07-7.94-3.21-1.72-2.14-2.58-5.78-2.58-10.92s.91-8.63,2.72-10.83c1.81-2.2,4.43-3.31,7.85-3.31,3.01,0,5.37.84,7.07,2.51s2.58,4.13,2.66,7.37l-5.85,1.06c-.1-2.36-.46-3.98-1.06-4.88-.61-.9-1.56-1.35-2.85-1.35-1.47,0-2.58.7-3.34,2.11-.76,1.41-1.14,3.83-1.14,7.28s.37,5.91,1.1,7.32c.73,1.41,1.88,2.11,3.42,2.11,1.19,0,2.12-.49,2.77-1.46.66-.97,1.05-2.58,1.18-4.81l5.81,1.25c-.23,3.17-1.2,5.59-2.93,7.26s-4.02,2.51-6.88,2.51Z" style="fill: #25986b;"/>
    <path d="M312.07,34.58c-7.17,0-10.75-4.71-10.75-14.14s3.58-14.17,10.75-14.17,10.72,4.73,10.72,14.17-3.57,14.14-10.72,14.14ZM312.07,29.94c1.54,0,2.7-.71,3.46-2.13.76-1.42,1.14-3.88,1.14-7.37s-.38-5.98-1.14-7.39c-.76-1.41-1.91-2.11-3.46-2.11s-2.74.7-3.51,2.11c-.77,1.41-1.16,3.87-1.16,7.39s.39,5.95,1.16,7.37c.77,1.42,1.94,2.13,3.51,2.13Z" style="fill: #25986b;"/>
    <path d="M327,33.93V6.95h6.42l6.8,14.06c.61,1.29,1.05,2.79,1.33,4.48h.08c-.05-1.19-.08-2.99-.08-5.4V6.95h5.4v26.98h-5.93l-7.22-14.74c-.63-1.32-1.09-2.82-1.37-4.52h-.08c.05,1.88.08,3.61.08,5.21v14.06h-5.43Z" style="fill: #25986b;"/>
    <path d="M361.92,34.58c-7.17,0-10.75-4.71-10.75-14.14s3.58-14.17,10.75-14.17,10.72,4.73,10.72,14.17-3.57,14.14-10.72,14.14ZM361.92,29.94c1.54,0,2.7-.71,3.46-2.13.76-1.42,1.14-3.88,1.14-7.37s-.38-5.98-1.14-7.39-1.91-2.11-3.46-2.11-2.74.7-3.52,2.11-1.16,3.87-1.16,7.39.39,5.95,1.16,7.37c.77,1.42,1.94,2.13,3.52,2.13Z" style="fill: #25986b;"/>
    <path d="M376.85,33.93V6.95h8.06l3.57,15.28c.3,1.34.49,2.55.57,3.61h.11c.08-1.11.27-2.33.57-3.65l3.5-15.24h8.06v26.98h-5.24v-16c0-1.85.04-3.57.11-5.17h-.11c-.08.76-.25,1.86-.53,3.31l-4.14,17.86h-4.67l-4.26-17.86c-.3-1.44-.48-2.53-.53-3.27h-.15c.08,1.01.11,2.72.11,5.13v16h-5.02Z" style="fill: #25986b;"/>
    <path d="M411.78,33.93v-9.73l-7.37-17.25h6.19l3.53,9.46c.28,1.01.47,1.94.57,2.77h.11c.13-1.04.32-1.96.57-2.77l3.46-9.46h6.19l-7.33,17.25v9.73h-5.93Z" style="fill: #25986b;"/>
    <path d="M135.03,80.93l-3.99-10.68h-2.96v10.68h-5.89v-26.98h9.61c3.04,0,5.3.7,6.78,2.11,1.48,1.41,2.22,3.4,2.22,5.99,0,3.62-1.44,6-4.33,7.14l4.86,11.74h-6.31ZM128.07,66.42h2.85c2.46,0,3.69-1.46,3.69-4.37,0-1.37-.29-2.38-.87-3.04-.58-.66-1.52-.99-2.81-.99h-2.85v8.4Z" style="fill: #25986b;"/>
    <path d="M151.14,76.49h9.84v4.45h-15.73v-26.98h15.47v4.45h-9.58v6.5h9.01v4.41h-9.01v7.18Z" style="fill: #25986b;"/>
    <path d="M173.14,81.58c-2.71,0-4.92-.65-6.61-1.96s-2.86-3.2-3.5-5.68l5.17-2.28c.43,1.77,1.06,3.08,1.9,3.93s1.92,1.27,3.27,1.27c1.04,0,1.85-.28,2.43-.85s.87-1.32.87-2.26-.22-1.68-.67-2.24c-.44-.56-1.21-1-2.3-1.33l-3.88-1.22c-3.75-1.19-5.62-3.79-5.62-7.79,0-2.43.84-4.35,2.51-5.76,1.67-1.41,3.86-2.11,6.57-2.11,5.24,0,8.38,2.28,9.42,6.84l-4.79,2.39c-.73-3.22-2.36-4.83-4.86-4.83-.99,0-1.77.26-2.36.78-.58.52-.87,1.21-.87,2.07,0,1.65,1.04,2.83,3.12,3.53l3.88,1.29c2,.68,3.45,1.65,4.33,2.89.89,1.24,1.33,2.88,1.33,4.9,0,2.51-.83,4.54-2.49,6.08s-3.95,2.32-6.86,2.32Z" style="fill: #25986b;"/>
    <path d="M192.29,76.49h9.84v4.45h-15.73v-26.98h15.47v4.45h-9.58v6.5h9.01v4.41h-9.01v7.18Z" style="fill: #25986b;"/>
    <path d="M221.32,80.93l-1.52-6.27h-7.45l-1.52,6.27h-5.93l7.6-26.98h7.18l7.56,26.98h-5.93ZM213.38,70.44h5.4l-1.9-7.94c-.41-1.95-.66-3.24-.76-3.88h-.08c-.13.99-.38,2.28-.76,3.88l-1.9,7.94Z" style="fill: #25986b;"/>
    <path d="M243.7,80.93l-3.99-10.68h-2.96v10.68h-5.89v-26.98h9.61c3.04,0,5.3.7,6.78,2.11,1.48,1.41,2.22,3.4,2.22,5.99,0,3.62-1.44,6-4.33,7.14l4.86,11.74h-6.31ZM236.75,66.42h2.85c2.46,0,3.69-1.46,3.69-4.37,0-1.37-.29-2.38-.87-3.04-.58-.66-1.52-.99-2.81-.99h-2.85v8.4Z" style="fill: #25986b;"/>
    <path d="M262.86,81.58c-3.57,0-6.22-1.07-7.94-3.21-1.72-2.14-2.58-5.78-2.58-10.92s.91-8.63,2.72-10.83c1.81-2.2,4.43-3.31,7.85-3.31,3.01,0,5.37.84,7.07,2.51s2.58,4.13,2.66,7.37l-5.85,1.06c-.1-2.36-.46-3.98-1.06-4.88-.61-.9-1.56-1.35-2.85-1.35-1.47,0-2.58.7-3.34,2.11-.76,1.41-1.14,3.83-1.14,7.28s.37,5.91,1.1,7.32c.73,1.41,1.88,2.11,3.42,2.11,1.19,0,2.12-.49,2.77-1.46.66-.97,1.05-2.58,1.18-4.81l5.81,1.25c-.23,3.17-1.2,5.59-2.93,7.26s-4.02,2.51-6.88,2.51Z" style="fill: #25986b;"/>
    <path d="M296.45,53.95v26.98h-5.89v-11.44h-7.68v11.44h-5.89v-26.98h5.89v10.98h7.68v-10.98h5.89Z" style="fill: #25986b;"/>
    <path d="M318.64,81.58c-6.18,0-9.27-4.8-9.27-14.4s3.58-13.87,10.75-13.87c2.96,0,5.28.74,6.93,2.2,1.66,1.47,2.59,3.56,2.79,6.27l-5.81,1.1c-.13-1.72-.51-3.01-1.14-3.86-.63-.85-1.58-1.27-2.85-1.27-1.55,0-2.69.72-3.44,2.15-.75,1.43-1.12,3.86-1.12,7.28,0,3.62.37,6.17,1.1,7.64.73,1.47,1.92,2.2,3.57,2.2,1.37,0,2.39-.53,3.08-1.58.68-1.05,1.03-2.51,1.03-4.39v-.68h-4.64v-4.41h10.26v14.97h-4.29l-.23-4.14c-.48,1.52-1.3,2.7-2.45,3.53-1.15.84-2.58,1.25-4.28,1.25Z" style="fill: #25986b;"/>
    <path d="M347.67,80.93l-3.99-10.68h-2.96v10.68h-5.89v-26.98h9.61c3.04,0,5.3.7,6.78,2.11,1.48,1.41,2.22,3.4,2.22,5.99,0,3.62-1.44,6-4.33,7.14l4.86,11.74h-6.31ZM340.72,66.42h2.85c2.46,0,3.69-1.46,3.69-4.37,0-1.37-.29-2.38-.87-3.04-.58-.66-1.52-.99-2.81-.99h-2.85v8.4Z" style="fill: #25986b;"/>
    <path d="M367.05,81.58c-7.17,0-10.75-4.71-10.75-14.14s3.58-14.17,10.75-14.17,10.71,4.73,10.71,14.17-3.57,14.14-10.71,14.14ZM367.05,76.94c1.54,0,2.7-.71,3.46-2.13.76-1.42,1.14-3.88,1.14-7.37s-.38-5.98-1.14-7.39-1.91-2.11-3.46-2.11-2.74.7-3.52,2.11c-.77,1.41-1.16,3.87-1.16,7.39s.39,5.95,1.16,7.37c.77,1.42,1.94,2.13,3.52,2.13Z" style="fill: #25986b;"/>
    <path d="M381.64,53.95h5.89v18.7c0,1.27.33,2.26.99,2.98.66.72,1.57,1.08,2.74,1.08s2.08-.36,2.75-1.08c.67-.72,1.01-1.72,1.01-2.98v-18.7h5.85v18.96c0,2.69-.84,4.8-2.53,6.35s-4.05,2.32-7.09,2.32-5.37-.77-7.07-2.32-2.55-3.66-2.55-6.35v-18.96Z" style="fill: #25986b;"/>
    <path d="M415.8,53.95c2.76,0,4.91.74,6.46,2.22,1.54,1.48,2.32,3.54,2.32,6.17s-.77,4.85-2.3,6.35c-1.53,1.5-3.68,2.24-6.44,2.24h-3.91v9.99h-5.89v-26.98h9.77ZM414.74,66.8c2.43,0,3.65-1.48,3.65-4.45s-1.22-4.26-3.65-4.26h-2.81v8.7h2.81Z" style="fill: #25986b;"/>
  </g>
</svg>